<?xml version="1.0" encoding="UTF-8" standalone="no"?><!DOCTYPE svg PUBLIC "-//W3C//DTD SVG 1.1//EN" "http://www.w3.org/Graphics/SVG/1.1/DTD/svg11.dtd"><svg width="100%" height="100%" viewBox="0 0 59 59" version="1.1" xmlns="http://www.w3.org/2000/svg" xmlns:xlink="http://www.w3.org/1999/xlink" xml:space="preserve" xmlns:serif="http://www.serif.com/" style="fill-rule:evenodd;clip-rule:evenodd;stroke-linejoin:round;stroke-miterlimit:2;"><g><path d="M29.403,0c-16.24,0 -29.403,13.208 -29.403,29.5c0,16.292 13.164,29.5 29.403,29.5c16.24,0 29.403,-13.208 29.403,-29.5c-0,-16.292 -13.164,-29.5 -29.403,-29.5" style="fill:#E74E4E;"/><path d="M42.455,29.982l4.502,-7.825l-2.13,-3.707l-9.017,-0.007l5.22,-9.071c-1.43,-0.836 -2.946,-1.516 -4.522,-2.027l-7.105,12.33l2.141,3.709l9.016,0l-4.505,7.833l2.128,3.715l13.777,0c0.38,-1.59 0.596,-3.252 0.63,-4.95l-10.135,0Zm-15.191,18.961l4.265,0.002l4.514,-7.829l4.921,8.55c1.435,-0.829 2.778,-1.809 4.006,-2.923l-6.787,-11.81l-4.27,-0l-4.513,7.836l-4.505,-7.836l-4.271,-0l-6.787,11.81c1.228,1.114 2.571,2.094 4.007,2.924l4.918,-8.548l4.503,7.824l-0.001,-0Zm-4.512,-17.724l-4.5,-7.835l9.008,-0l2.143,-3.71l-7.105,-12.328c-1.576,0.511 -3.092,1.19 -4.522,2.026l5.218,9.067l-9.005,-0l-2.135,3.706l4.502,7.837l-10.14,-0c0.035,1.698 0.25,3.36 0.63,4.95l13.777,0l2.13,-3.713l-0.001,0Z" style="fill:#fff;"/></g></svg>